<?xml version="1.0" encoding="utf-8"?>
<!-- Generator: Adobe Illustrator 19.1.0, SVG Export Plug-In . SVG Version: 6.00 Build 0)  -->
<svg version="1.1" id="Layer_1" xmlns="http://www.w3.org/2000/svg" xmlns:xlink="http://www.w3.org/1999/xlink" x="0px" y="0px"
	 viewBox="0 0 180 100" style="enable-background:new 0 0 180 100;" xml:space="preserve">
<style type="text/css">
	.st0{fill:#185267;}
	.st1{fill-rule:evenodd;clip-rule:evenodd;fill:#679EC3;}
	.st2{fill-rule:evenodd;clip-rule:evenodd;fill:#4E809F;}
	.st3{fill:#679EC3;}
	.st4{fill:url(#SVGID_1_);}
	.st5{fill:url(#SVGID_2_);}
	.st6{fill:url(#SVGID_3_);}
	.st7{fill:url(#SVGID_4_);}
	.st8{fill:url(#SVGID_5_);}
</style>
<g>
	<g>
		<path class="st0" d="M49.8,81.4c0,0.1-0.1,0.1-0.1,0.1h-1c-0.1,0-0.1-0.1-0.1-0.1v-7.2c0-0.1,0.1-0.1,0.1-0.1h4.9
			c0.1,0,0.1,0.1,0.1,0.1v0.8c0,0.1-0.1,0.1-0.1,0.1h-3.8v2.1H53c0.1,0,0.1,0.1,0.1,0.1v0.8c0,0.1-0.1,0.1-0.1,0.1h-3.3V81.4z"/>
		<path class="st0" d="M56.8,81.4c0,0.1-0.1,0.1-0.2,0.1h-0.9c-0.1,0-0.1,0-0.1-0.1c0,0,0-0.1,0-0.1l2.7-7.2c0-0.1,0.1-0.1,0.2-0.1
			h1c0.1,0,0.2,0,0.2,0.1l2.7,7.2c0,0,0,0.1,0,0.1c0,0.1,0,0.1-0.1,0.1h-1c-0.1,0-0.2,0-0.2-0.1l-0.6-1.5h-3.1L56.8,81.4z
			 M58.9,75.6l-1.3,3.3h2.5L58.9,75.6z"/>
		<path class="st0" d="M72.7,81.4c0,0.1-0.1,0.1-0.1,0.1h-0.9c-0.1,0-0.1-0.1-0.1-0.1v-5.2l-2,3.4c-0.1,0.1-0.1,0.1-0.2,0.1h-0.7
			c-0.1,0-0.2,0-0.2-0.1l-2.1-3.4v5.2c0,0.1-0.1,0.1-0.1,0.1h-0.9c-0.1,0-0.1-0.1-0.1-0.1v-7.2c0-0.1,0.1-0.1,0.1-0.1h1
			c0.1,0,0.2,0,0.2,0.1l2.4,4.1l2.4-4.1c0.1-0.1,0.1-0.1,0.3-0.1h1c0.1,0,0.1,0.1,0.1,0.1V81.4z"/>
		<path class="st0" d="M77.5,74.1c0.1,0,0.1,0.1,0.1,0.1v7.2c0,0.1-0.1,0.1-0.1,0.1h-1c-0.1,0-0.1-0.1-0.1-0.1v-7.2
			c0-0.1,0.1-0.1,0.1-0.1H77.5z"/>
		<path class="st0" d="M82.4,74.1c0.1,0,0.1,0.1,0.1,0.1v6.2H86c0.1,0,0.1,0.1,0.1,0.1v0.8c0,0.1-0.1,0.1-0.1,0.1h-4.6
			c-0.1,0-0.1-0.1-0.1-0.1v-7.2c0-0.1,0.1-0.1,0.1-0.1H82.4z"/>
		<path class="st0" d="M92.7,74.3c0.1-0.1,0.1-0.1,0.2-0.1H94c0.1,0,0.2,0.1,0.1,0.2l-2.8,4.1v3.1c0,0.1-0.1,0.1-0.1,0.1h-1
			c-0.1,0-0.1-0.1-0.1-0.1v-3.1l-2.8-4.1c-0.1-0.1-0.1-0.2,0.1-0.2h1.1c0.1,0,0.2,0,0.2,0.1l2,2.9L92.7,74.3z"/>
		<path class="st0" d="M106.8,81c-0.7,0.4-1.6,0.5-2.4,0.5h-2.6c-0.1,0-0.1-0.1-0.1-0.1v-7.2c0-0.1,0.1-0.1,0.1-0.1h2.7
			c1.2,0,2.3,0.3,3.1,1.2c0.5,0.6,0.9,1.4,0.9,2.6C108.5,79.2,107.9,80.4,106.8,81z M102.8,80.5h1.4c0.6,0,1.3-0.1,1.7-0.4
			c0.8-0.4,1.3-1.3,1.3-2.3c0-0.8-0.2-1.5-0.6-1.9c-0.5-0.6-1.3-0.8-2.3-0.8h-1.5V80.5z"/>
		<path class="st0" d="M117.1,74.1c0.1,0,0.1,0.1,0.1,0.1v0.8c0,0.1-0.1,0.1-0.1,0.1H113v2.1h3.6c0.1,0,0.1,0.1,0.1,0.1v0.8
			c0,0.1-0.1,0.1-0.1,0.1H113v2.1h4.1c0.1,0,0.1,0.1,0.1,0.1v0.8c0,0.1-0.1,0.1-0.1,0.1h-5.2c-0.1,0-0.1-0.1-0.1-0.1v-7.2
			c0-0.1,0.1-0.1,0.1-0.1H117.1z"/>
		<path class="st0" d="M125.9,74.3c0-0.1,0.1-0.1,0.1-0.1h0.9c0.1,0,0.1,0.1,0.1,0.1v7.2c0,0.1-0.1,0.1-0.1,0.1h-0.9
			c-0.1,0-0.2,0-0.2-0.1l-4.2-5.3v5.3c0,0.1-0.1,0.1-0.1,0.1h-0.9c-0.1,0-0.1-0.1-0.1-0.1v-7.2c0-0.1,0.1-0.1,0.1-0.1h0.9
			c0.1,0,0.2,0,0.3,0.1l4.2,5.3V74.3z"/>
		<path class="st0" d="M136,74.1c0.1,0,0.1,0.1,0.1,0.1v0.8c0,0.1-0.1,0.1-0.1,0.1h-2.4v6.3c0,0.1-0.1,0.1-0.1,0.1h-1
			c-0.1,0-0.1-0.1-0.1-0.1v-6.3H130c-0.1,0-0.1-0.1-0.1-0.1v-0.8c0-0.1,0.1-0.1,0.1-0.1H136z"/>
		<path class="st0" d="M140.1,74.1c0.1,0,0.1,0.1,0.1,0.1v7.2c0,0.1-0.1,0.1-0.1,0.1h-1c-0.1,0-0.1-0.1-0.1-0.1v-7.2
			c0-0.1,0.1-0.1,0.1-0.1H140.1z"/>
		<path class="st0" d="M143.5,81c-0.1,0-0.1-0.1-0.1-0.2l0.4-0.8c0-0.1,0.1-0.1,0.2,0c0.5,0.3,1.1,0.7,2.1,0.7c0.5,0,0.8-0.1,1-0.3
			c0.3-0.2,0.4-0.5,0.4-0.8c0-0.5-0.4-0.8-0.9-1c-0.6-0.3-1.4-0.4-2.1-0.8c-0.6-0.3-1-0.8-1-1.7c0-0.6,0.2-1.1,0.7-1.5
			c0.5-0.4,1.1-0.6,2-0.6c1,0,1.8,0.3,2.3,0.5c0.1,0,0.1,0.1,0.1,0.2l-0.4,0.8c0,0.1-0.1,0.1-0.2,0.1c-0.5-0.3-1.2-0.5-1.8-0.5
			c-0.5,0-0.9,0.1-1.1,0.3c-0.2,0.2-0.3,0.4-0.3,0.7c0,0.5,0.4,0.7,1,0.9c0.7,0.3,1.5,0.4,2.1,0.8c0.5,0.3,0.9,0.8,0.9,1.6
			c0,0.7-0.3,1.3-0.8,1.7c-0.5,0.4-1.2,0.6-2,0.6C144.9,81.7,144.1,81.3,143.5,81z"/>
		<path class="st0" d="M157.5,74.1c0.1,0,0.1,0.1,0.1,0.1v0.8c0,0.1-0.1,0.1-0.1,0.1h-2.4v6.3c0,0.1-0.1,0.1-0.1,0.1h-1
			c-0.1,0-0.1-0.1-0.1-0.1v-6.3h-2.4c-0.1,0-0.1-0.1-0.1-0.1v-0.8c0-0.1,0.1-0.1,0.1-0.1H157.5z"/>
		<path class="st0" d="M164.6,78.7l1.8,2.6c0.1,0.1,0.1,0.2-0.1,0.2h-1.1c-0.1,0-0.2,0-0.3-0.1l-1.8-2.6h-1.6v2.6
			c0,0.1-0.1,0.1-0.1,0.1h-1c-0.1,0-0.1-0.1-0.1-0.1v-7.2c0-0.1,0.1-0.1,0.1-0.1h3.1c0.7,0,1.4,0.1,1.9,0.5c0.5,0.4,0.9,1.1,0.9,1.9
			c0,0.8-0.3,1.4-0.9,1.8C165.2,78.5,164.9,78.6,164.6,78.7z M161.6,75.2v2.6h1.8c0.5,0,0.8,0,1.2-0.2c0.3-0.2,0.5-0.5,0.5-1.1
			c0-0.5-0.2-0.9-0.5-1.1c-0.3-0.2-0.7-0.2-1.1-0.2H161.6z"/>
		<path class="st0" d="M174,74.3c0.1-0.1,0.1-0.1,0.2-0.1h1.1c0.1,0,0.2,0.1,0.1,0.2l-2.8,4.1v3.1c0,0.1-0.1,0.1-0.1,0.1h-1
			c-0.1,0-0.1-0.1-0.1-0.1v-3.1l-2.8-4.1c-0.1-0.1-0.1-0.2,0.1-0.2h1.1c0.1,0,0.2,0,0.2,0.1l2,2.9L174,74.3z"/>
	</g>
	<g>
		<path class="st1" d="M24.5,27.9c-3.6,1.4-9.9,0-12.6,2.5c-4.4,5.3,4.4,12.4,5,19.5c0.8,9.8-9.6,20.6-1.9,31.5
			c-10.4-5-2.6-13.9-3.1-27.1C11.5,43.9,0.1,37.1,6.3,28.5C9.8,23.6,18.2,25.6,24.5,27.9z"/>
		<path class="st2" d="M25.1,52.6C22.5,55,16,69.3,18.3,80.7c2.4-9.1,4.8-24.7,9.8-23.6c5,1.1,7.6,13.5,7.3,23.2
			c2.8-8.5-0.9-20.3-2.7-23.2C30.9,54.3,27.8,50.2,25.1,52.6z"/>
		<path class="st1" d="M45.9,30.4c-8.7-9-16.7,5.5-25.2,3.8c7.6,4.5,16.4-4.8,20-2.9c2.4,1.2,3.2,3.6,1.6,8.1
			c-1.6,4.5-4.8,6.9-5.2,11.5c-0.8,9.8,8.1,19.3,0.3,30.1c9.3-8.2,2.7-13.9,3.1-27.1c0.2-6.3,5.2-13.2,6-16.1
			C47.4,34.8,47.5,32.4,45.9,30.4z"/>
	</g>
	<g>
		<path class="st3" d="M131.7,22.9c0-2.6,2.1-4.6,4.7-4.6c2.6,0,4.7,2,4.7,4.6c0,2.7-2.1,4.7-4.7,4.7
			C133.8,27.6,131.7,25.6,131.7,22.9z"/>
	</g>
	<g>
		<linearGradient id="SVGID_1_" gradientUnits="userSpaceOnUse" x1="64.4485" y1="31.1021" x2="64.4485" y2="65.2938">
			<stop  offset="0.3791" style="stop-color:#679EC3"/>
			<stop  offset="1" style="stop-color:#4E809F"/>
		</linearGradient>
		<path class="st4" d="M57.6,64.3c-0.2,0.7-0.7,1-1.5,1h-6.9c-0.6,0-0.8-0.3-0.8-0.7c0-0.2,0.1-0.3,0.1-0.5l10.9-32
			c0.2-0.6,0.7-0.9,1.4-0.9h7.4c0.7,0,1.2,0.2,1.4,0.9l10.7,32c0.1,0.2,0.1,0.4,0.1,0.5c0,0.4-0.2,0.7-0.8,0.7h-7.1
			c-0.8,0-1.3-0.3-1.5-1l-1.5-5.1H59.1L57.6,64.3z M64.4,41.7l-3.1,10.3h6.2L64.4,41.7z"/>
		<linearGradient id="SVGID_2_" gradientUnits="userSpaceOnUse" x1="92.8255" y1="31.2516" x2="92.8255" y2="65.2938">
			<stop  offset="0.3791" style="stop-color:#679EC3"/>
			<stop  offset="1" style="stop-color:#4E809F"/>
		</linearGradient>
		<path class="st5" d="M103.4,57.5c0.5,0,0.9,0.4,0.9,0.9v6c0,0.5-0.4,0.9-0.9,0.9h-8c-5.1,0-9.2-1.2-11.5-4.7
			c-1.5-2.2-2.4-5.4-2.4-9.9V32.2c0-0.5,0.4-0.9,0.9-0.9h7c0.5,0,0.9,0.4,0.9,0.9V52c0,1.5,0.3,2.8,1,3.8c0.8,1.1,2.2,1.7,4.3,1.7
			H103.4z"/>
		<linearGradient id="SVGID_3_" gradientUnits="userSpaceOnUse" x1="117.1687" y1="31.2516" x2="117.1687" y2="65.2938">
			<stop  offset="0.3791" style="stop-color:#679EC3"/>
			<stop  offset="1" style="stop-color:#4E809F"/>
		</linearGradient>
		<path class="st6" d="M127.7,57.5c0.5,0,0.9,0.4,0.9,0.9v6c0,0.5-0.4,0.9-0.9,0.9h-8c-5.1,0-9.1-1.2-11.5-4.7
			c-1.5-2.2-2.4-5.4-2.4-9.9V32.2c0-0.5,0.4-0.9,0.9-0.9h7c0.5,0,0.9,0.4,0.9,0.9V52c0,1.5,0.3,2.8,1,3.8c0.8,1.1,2.2,1.7,4.2,1.7
			H127.7z"/>
		<linearGradient id="SVGID_4_" gradientUnits="userSpaceOnUse" x1="136.3121" y1="31.2516" x2="136.3121" y2="65.2938">
			<stop  offset="0.3791" style="stop-color:#679EC3"/>
			<stop  offset="1" style="stop-color:#4E809F"/>
		</linearGradient>
		<path class="st7" d="M139.8,31.3c0.5,0,0.9,0.4,0.9,0.9v32.2c0,0.5-0.4,0.9-0.9,0.9h-7c-0.5,0-0.9-0.4-0.9-0.9V32.2
			c0-0.5,0.4-0.9,0.9-0.9H139.8z"/>
		<linearGradient id="SVGID_5_" gradientUnits="userSpaceOnUse" x1="160.3297" y1="30.802" x2="160.3297" y2="65.2938">
			<stop  offset="0.3791" style="stop-color:#679EC3"/>
			<stop  offset="1" style="stop-color:#4E809F"/>
		</linearGradient>
		<path class="st8" d="M153.9,34.1c0.8-0.7,1.9-1.5,2.9-2c1.6-0.8,3.5-1.3,5.7-1.3c3.4,0,6.9,0.9,9.4,3.3c2.1,2.1,3.6,5.4,3.6,10.3
			v19.9c0,0.5-0.4,0.9-0.9,0.9h-7c-0.5,0-0.9-0.4-0.9-0.9v-18c0-2.1-0.2-4.3-1.3-5.7c-0.8-0.9-2.1-1.7-4-1.7c-2.9,0-4.7,1.2-5.8,2.9
			c-1.1,1.8-1.6,3.9-1.6,6.4v16.1c0,0.5-0.4,0.9-0.9,0.9h-7c-0.5,0-0.9-0.4-0.9-0.9V32.2c0-0.5,0.4-0.9,0.9-0.9h6.7
			c0.5,0,0.9,0.4,0.9,0.9v1.9H153.9z"/>
	</g>
</g>
</svg>
