<?xml version="1.0" encoding="utf-8"?>
<!-- Generator: Adobe Illustrator 19.2.0, SVG Export Plug-In . SVG Version: 6.00 Build 0)  -->
<svg version="1.1" id="Layer_1" xmlns="http://www.w3.org/2000/svg" xmlns:xlink="http://www.w3.org/1999/xlink" x="0px" y="0px"
	 viewBox="0 0 276 78.5" style="enable-background:new 0 0 276 78.5;" xml:space="preserve">
<style type="text/css">
	.st0{fill:#FFFFFF;}
</style>
<title>studerus_logo_blue</title>
<g>
	<g id="Layer_1_1_">
		<path class="st0" d="M24.8,1.8C23.5,2,22,3.6,21.3,4.3S5.6,23.3,3.5,26.5c-2.1,3.3-2.7,5.2-2.6,6.3s2.8,4.5,3.3,4.9
			s1.1,0.4,2.9-0.2S24.7,26.6,28,25c5-2.3,15.4-6.2,17.8-5.8c1,0.2,2.5,1.1,1.6,2.5c-1.6,2.6-15.7,10.8-26.3,21.4
			C15,49.3,7.6,61.6,8,64.9c0.4,1.5,1,3,1.7,4.4c1.2,1.7,2.8,2.9,4.8,3.6c-1.5-0.8-2.7-2-3.4-3.5c-1-2.4,1.2-7.5,4.4-12.3
			c4.4-6.6,9.7-12.6,15.7-17.7c4.1-3.5,15-10.9,16-11.9c1-1,1-1.6,1.2-4.1s0.2-4.1-1.3-4.8s-6.5-0.8-17,4C19.9,27,6.5,37.7,4.6,36.4
			s1.9-7.3,3.6-9.5C9.8,25,18.9,12.6,21.4,9.7c1.6-1.8,5.1-6.2,5.7-6.1c0.6,0.3,1,1,1,1.7c0.5-0.1,1.1-0.1,1.6-0.3
			c-0.3-0.9-1-1.7-1.9-2.2C27,2.2,25.9,1.8,24.8,1.8"/>
		<path class="st0" d="M61.6,38v0.6c0,2.9,1.3,4.3,3.9,4.3c1.9,0.1,3.5-1.3,3.6-3.2c0-0.1,0-0.2,0-0.3c0-2.5-1.3-3.6-3.4-4.2
			l-2.6-0.9c-3.4-1.3-4.9-3.1-4.9-6.5c0-4.3,3-6.7,7.3-6.7c6.1,0,6.7,3.8,6.7,6.2v0.5h-3.8v-0.5c0-2.1-0.9-3.4-3.3-3.4
			c-1.6,0-3.2,0.9-3.2,3.4c0,2,1,3,3.5,4l2.5,1c3.3,1.2,4.8,3,4.8,6.3c0,5-3,7.1-7.8,7.1c-5.9,0-7.2-3.9-7.2-7.2V38
			C57.9,38,61.6,38,61.6,38z"/>
		<path class="st0" d="M87.7,38.8c-0.3,4.3-1.7,7-6.1,7c-5.2,0-6.6-3.8-6.6-9.4s1.5-9.4,6.6-9.4s6.1,4.2,6.1,6.4h-3.6
			c0-1.7-0.4-3.8-2.6-3.7c-2.6,0-3,2.8-3,6.7s0.5,6.7,3,6.7c2,0,2.7-1.6,2.7-4.3L87.7,38.8L87.7,38.8z"/>
		<path class="st0" d="M89.7,36.5c0-5.6,1.5-9.4,6.6-9.4s6.7,3.8,6.7,9.4s-1.7,9.4-6.7,9.4S89.7,42,89.7,36.5z M96.3,43.2
			c2.6,0,3.1-2.2,3.1-6.7c0-3.9-0.5-6.7-3.1-6.7s-3,2.8-3,6.7C93.2,41,93.8,43.1,96.3,43.2L96.3,43.2z"/>
		<path class="st0" d="M104.1,27.5h2.4v-5.1h3.6v5.1h2.9v2.6h-2.9v10.6c0,1.4,0.4,1.9,1.6,1.9c0.4,0,0.9,0,1.3-0.1v2.7
			c-0.9,0.2-1.9,0.3-2.9,0.3c-2.4,0-3.6-0.7-3.6-4.3V30.2h-2.4L104.1,27.5L104.1,27.5z"/>
		<path class="st0" d="M115,27.5h2.4v-5.1h3.6v5.1h2.9v2.6H121v10.6c0,1.4,0.4,1.9,1.6,1.9c0.4,0,0.9,0,1.3-0.1v2.7
			c-0.9,0.2-1.9,0.3-2.9,0.3c-2.4,0-3.6-0.7-3.6-4.3V30.2h-2.4L115,27.5L115,27.5z"/>
		<path class="st0" d="M130.9,21.7h3.8l3.1,18.4h0.1l3.1-18.4h4l3.2,18.5h0.1l3.1-18.5h3.7l-4.7,23.6H146l-3-17.8h-0.2l-3,17.8h-4.4
			L130.9,21.7z"/>
		<path class="st0" d="M154.9,41h3.8v4.4h-3.8V41z"/>
		<path class="st0" d="M166.9,38v0.6c0,2.9,1.3,4.3,3.9,4.3c1.9,0.1,3.5-1.3,3.6-3.2c0-0.1,0-0.2,0-0.3c0-2.5-1.3-3.6-3.4-4.2
			l-2.6-0.9c-3.4-1.3-4.9-3.1-4.9-6.5c0-4.3,2.9-6.7,7.4-6.7c6.1,0,6.7,3.8,6.7,6.2v0.5h-3.8v-0.5c0-2.1-0.9-3.4-3.3-3.4
			c-1.6,0-3.2,0.9-3.2,3.4c0,2,1,3,3.5,4l2.5,1c3.3,1.2,4.8,3,4.8,6.3c0,5-3,7.1-7.8,7.1c-5.9,0-7.2-3.9-7.2-7.2V38H166.9L166.9,38z
			"/>
		<path class="st0" d="M179.3,27.5h2.5v-5.1h3.6v5.1h2.9v2.6h-2.9v10.6c0,1.4,0.4,1.9,1.6,1.9c0.4,0,0.9,0,1.3-0.1v2.7
			c-0.9,0.2-1.9,0.3-2.9,0.3c-2.4,0-3.6-0.7-3.6-4.3V30.2h-2.4L179.3,27.5L179.3,27.5z"/>
		<path class="st0" d="M199.2,43.2h-0.1c-0.9,1.6-2.7,2.6-4.6,2.5c-2.6,0-4.4-1.2-4.4-5.8V27.5h3.6v12.8c0,2,0.9,2.7,2.4,2.7
			c1.5,0.1,2.8-1.1,2.9-2.6c0-0.1,0-0.2,0-0.4V27.5h3.6v17.8h-3.4L199.2,43.2L199.2,43.2z"/>
		<path class="st0" d="M215.1,43.1L215.1,43.1c-0.6,1.7-2.2,2.8-4,2.7c-4.1,0-5.8-3.5-5.8-9.6c0-7.9,2.8-9.1,5.5-9.1
			c1.7-0.1,3.3,0.9,4,2.5h0.1v-7.9h3.6v23.6h-3.4L215.1,43.1L215.1,43.1z M211.9,29.9c-2,0-2.8,1.6-2.8,6.4c0,4,0.5,6.6,3,6.6
			s3-2.5,3-6.3C215.1,32.3,214.7,29.9,211.9,29.9z"/>
		<path class="st0" d="M225,36.9v1c0,2.4,0.3,5.4,3,5.4s2.9-2.9,2.9-4h3.4c0,4-2.4,6.4-6.3,6.4c-2.9,0-6.5-0.9-6.5-9.1
			c0-4.7,1-9.6,6.6-9.6c5,0,6.3,3,6.3,7.9v1.9L225,36.9L225,36.9z M230.8,34.5v-1c0-2.2-0.7-4-2.8-4c-2.2,0-3,2.2-3,4.6v0.4H230.8z"
			/>
		<path class="st0" d="M237.3,27.5h3.5v2.8h0.1c0.8-2,2.1-3.2,4.1-3.2c0.3,0,0.6,0,0.9,0.1v3.6c-0.5-0.1-1-0.2-1.5-0.2
			c-1.6,0-3.6,0.7-3.6,4v10.7h-3.6L237.3,27.5L237.3,27.5z"/>
		<path class="st0" d="M256.8,43.2h-0.1c-0.9,1.6-2.7,2.6-4.6,2.5c-2.6,0-4.4-1.2-4.4-5.8V27.5h3.6v12.8c0,2,0.9,2.7,2.4,2.7
			c1.5,0.1,2.8-1.1,2.9-2.6c0-0.1,0-0.2,0-0.4V27.5h3.6v17.8h-3.4V43.2z"/>
		<path class="st0" d="M271.3,32.7v-0.5c0-1.4-0.5-2.8-2.4-2.8c-1.4,0-2.5,0.6-2.5,2.3c0,1.4,0.6,2,2.5,2.6l2.3,0.8
			c2.6,0.9,3.9,2.3,3.9,5.1c0,3.8-2.8,5.4-6.4,5.4c-4.5,0-5.9-2.1-5.9-5.5v-0.7h3.2v0.6c0,2.1,0.7,3.2,2.8,3.2s2.9-1,2.9-2.6
			c0-1.2-0.8-2.3-2-2.6l-2.9-1c-2.7-0.9-3.8-2.3-3.8-5.1c0-3.3,2.4-4.9,6.1-4.9c4.5,0,5.6,2.6,5.6,4.9v0.8L271.3,32.7L271.3,32.7z"
			/>
		<path class="st0" d="M58,56.4h7.4v1.3h-5.9v3.6h5.2v1.3h-5.2v5.1H58V56.4z"/>
		<path class="st0" d="M73.2,56.4h1.7l4.4,11.2h-1.7l-1.2-3.4h-4.8l-1.3,3.4h-1.5L73.2,56.4z M72.1,63h3.8L74,57.7l0,0L72.1,63z"/>
		<path class="st0" d="M83.5,56.4h2l3.5,9.4l3.6-9.4h2v11.2h-1.3v-9.3l0,0l-3.5,9.3h-1.3L85,58.2l0,0v9.3h-1.4V56.4z"/>
		<path class="st0" d="M100.4,56.4h1.5v11.2h-1.5V56.4z"/>
		<path class="st0" d="M107.6,56.4h1.5v10h5.9v1.3h-7.4V56.4z"/>
		<path class="st0" d="M124.1,63v4.6h-1.5V63l-4.3-6.6h1.8l3.4,5.3l3.3-5.3h1.7L124.1,63z"/>
		<path class="st0" d="M140.3,56.4h3.9c3.5,0,5.4,1.7,5.4,5.3c0,3.8-1.6,5.9-5.4,5.9h-3.9V56.4z M141.7,66.4h2.5
			c1,0,3.8-0.3,3.8-4.4c0-2.7-1-4.3-3.7-4.3h-2.5L141.7,66.4L141.7,66.4z"/>
		<path class="st0" d="M154.5,56.4h7.8v1.3h-6.3v3.6h5.8v1.3H156v3.9h6.3v1.3h-7.8V56.4z"/>
		<path class="st0" d="M167.2,56.4h1.6l5.9,9.1l0,0v-9.1h1.4v11.2h-1.6l-5.9-9l0,0v9h-1.4L167.2,56.4L167.2,56.4z"/>
		<path class="st0" d="M184.2,57.6h-3.7v-1.3h9v1.3h-3.7v10h-1.5L184.2,57.6L184.2,57.6z"/>
		<path class="st0" d="M193.9,56.4h1.5v11.2h-1.5V56.4z"/>
		<path class="st0" d="M207.5,59.7c-0.2-1.6-1.2-2.3-2.8-2.3c-1.3,0-2.5,0.5-2.5,1.9c0,2.8,7.2,0.8,7.2,5.2c0,2.4-2.3,3.3-4.4,3.3
			c-2.5,0-4.6-1.2-4.6-4h1.4c0,1.9,1.6,2.7,3.3,2.7c1.4,0,2.8-0.4,2.8-2c0-3.1-7.1-1.1-7.1-5.2c0-2.3,2-3.3,4.1-3.3
			c2.3,0,4.1,1.1,4.1,3.5L207.5,59.7L207.5,59.7z"/>
		<path class="st0" d="M216.9,57.6h-3.7v-1.3h9v1.3h-3.7v10h-1.5L216.9,57.6L216.9,57.6z"/>
		<path class="st0" d="M226.5,56.4h5.2c2.1,0,3.4,1.1,3.4,2.9c0.1,1.3-0.7,2.5-1.9,2.8l0,0c1.3,0.3,1.5,1.3,1.7,2.3s0,2.3,0.7,3.1
			h-1.7c-0.4-0.5-0.2-1.7-0.4-2.8s-0.4-2-1.9-2H228v4.8h-1.5L226.5,56.4L226.5,56.4z M231.1,61.5c1.4,0,2.6-0.4,2.6-2
			c0.1-1-0.6-1.8-1.6-1.9c-0.1,0-0.3,0-0.4,0H228v3.9L231.1,61.5L231.1,61.5z"/>
		<path class="st0" d="M245.1,63v4.6h-1.5V63l-4.3-6.6h1.8l3.4,5.3l3.3-5.3h1.7L245.1,63z"/>
	</g>
</g>
</svg>
